<?xml version="1.0" standalone="no"?>
<!DOCTYPE svg PUBLIC "-//W3C//DTD SVG 20010904//EN"
 "http://www.w3.org/TR/2001/REC-SVG-20010904/DTD/svg10.dtd">
<svg version="1.0" xmlns="http://www.w3.org/2000/svg"
 width="256.000000pt" height="256.000000pt" viewBox="0 0 256.000000 256.000000"
 preserveAspectRatio="xMidYMid meet">

<g transform="translate(0.000000,256.000000) scale(0.100000,-0.100000)"
fill="#000000" stroke="none">
<path d="M725 2240 l-550 -318 0 -642 0 -642 553 -319 552 -319 553 319 552
319 0 642 0 642 -545 315 c-300 173 -549 316 -555 318 -5 2 -257 -140 -560
-315z m861 -245 c67 -17 186 -73 226 -107 l28 -23 -75 -90 c-42 -49 -79 -91
-84 -93 -5 -2 -31 11 -57 28 -66 41 -133 60 -219 60 -123 0 -207 -58 -266
-185 -35 -75 -49 -159 -49 -300 1 -304 113 -465 325 -465 84 0 148 21 227 74
l67 45 71 -88 c38 -49 70 -94 70 -100 0 -15 -95 -84 -166 -120 -101 -51 -170
-64 -319 -59 -108 4 -143 9 -204 31 -281 100 -426 364 -408 741 8 150 26 227
80 336 31 64 59 103 113 156 99 100 201 149 374 178 45 8 205 -4 266 -19z"/>
</g>
</svg>
